<svg xmlns="http://www.w3.org/2000/svg" version="1.1" xmlns:xlink="http://www.w3.org/1999/xlink" xmlns:svgjs="http://svgjs.dev/svgjs" width="2000" height="267" viewBox="0 0 2000 267"><g transform="matrix(1,0,0,1,-1.2121212121212466,0.5314339761308702)"><svg viewBox="0 0 396 53" data-background-color="#051726" preserveAspectRatio="xMidYMid meet" height="267" width="2000" xmlns="http://www.w3.org/2000/svg" xmlns:xlink="http://www.w3.org/1999/xlink"><g id="tight-bounds" transform="matrix(1,0,0,1,0.2400000000000091,-0.1054906394566899)"><svg viewBox="0 0 395.52 53.210981278913366" height="53.210981278913366" width="395.52"><g><svg viewBox="0 0 469.4686577975585 63.1596075068327" height="53.210981278913366" width="395.52"><g transform="matrix(1,0,0,1,0,8.729005089583971)"><svg viewBox="0 0 395.52 45.70159732766476" height="45.70159732766476" width="395.52"><g id="textblocktransform"><svg viewBox="0 0 395.52 45.70159732766476" height="45.70159732766476" width="395.52" id="textblock"><g><svg viewBox="0 0 395.52 45.70159732766476" height="45.70159732766476" width="395.52"><g transform="matrix(1,0,0,1,0,0)"><svg width="395.52" viewBox="3.85 -37.45 329.27 38.050000000000004" height="45.70159732766476" data-palette-color="#ffffff"><path d="M3.85 0L3.85-34.9 20.8-34.9Q25.15-34.9 27.58-32.45 30-30 30-25.95L30-25.95Q30-23.95 29.48-22.55 28.95-21.15 28.08-20.25 27.2-19.35 26.03-18.93 24.85-18.5 23.5-18.45L23.5-18.45 23.5-18.15Q24.75-18.15 26.13-17.7 27.5-17.25 28.65-16.28 29.8-15.3 30.58-13.75 31.35-12.2 31.35-9.95L31.35-9.95Q31.35-7.9 30.68-6.08 30-4.25 28.8-2.9 27.6-1.55 25.95-0.78 24.3 0 22.35 0L22.35 0 3.85 0ZM11.45-14.4L11.45-6.4 20.2-6.4Q21.7-6.4 22.58-7.23 23.45-8.05 23.45-9.55L23.45-9.55 23.45-11.25Q23.45-12.75 22.58-13.58 21.7-14.4 20.2-14.4L20.2-14.4 11.45-14.4ZM11.45-28.5L11.45-20.6 19-20.6Q20.5-20.6 21.35-21.45 22.2-22.3 22.2-23.8L22.2-23.8 22.2-25.3Q22.2-26.8 21.35-27.65 20.5-28.5 19-28.5L19-28.5 11.45-28.5ZM52.3 0L52.3-4.4 52.05-4.4Q51.7-3.4 51.12-2.5 50.55-1.6 49.65-0.9 48.75-0.2 47.52 0.2 46.3 0.6 44.7 0.6L44.7 0.6Q40.65 0.6 38.57-2.08 36.5-4.75 36.5-9.75L36.5-9.75 36.5-26.25 43.9-26.25 43.9-10.4Q43.9-8 44.75-6.7 45.6-5.4 47.65-5.4L47.65-5.4Q48.5-5.4 49.35-5.65 50.2-5.9 50.85-6.38 51.5-6.85 51.9-7.55 52.3-8.25 52.3-9.2L52.3-9.2 52.3-26.25 59.7-26.25 59.7 0 52.3 0ZM77.3 0L73.95 0Q70.15 0 68.37-1.85 66.6-3.7 66.6-7.2L66.6-7.2 66.6-37 74-37 74-5.75 77.3-5.75 77.3 0ZM92.04 0L88.69 0Q84.89 0 83.12-1.85 81.34-3.7 81.34-7.2L81.34-7.2 81.34-37 88.74-37 88.74-5.75 92.04-5.75 92.04 0ZM107.44 0.6L107.44 0.6Q104.44 0.6 102.09-0.38 99.74-1.35 98.12-3.13 96.49-4.9 95.67-7.45 94.84-10 94.84-13.15L94.84-13.15Q94.84-16.25 95.64-18.78 96.44-21.3 98.02-23.1 99.59-24.9 101.89-25.88 104.19-26.85 107.14-26.85L107.14-26.85Q110.39-26.85 112.72-25.75 115.04-24.65 116.52-22.8 117.99-20.95 118.67-18.53 119.34-16.1 119.34-13.45L119.34-13.45 119.34-11.25 102.49-11.25 102.49-10.85Q102.49-8.25 103.89-6.73 105.29-5.2 108.29-5.2L108.29-5.2Q110.59-5.2 112.04-6.13 113.49-7.05 114.74-8.35L114.74-8.35 118.44-3.75Q116.69-1.7 113.87-0.55 111.04 0.6 107.44 0.6ZM107.29-21.4L107.29-21.4Q105.04-21.4 103.77-19.93 102.49-18.45 102.49-16L102.49-16 102.49-15.6 111.69-15.6 111.69-16.05Q111.69-18.45 110.62-19.93 109.54-21.4 107.29-21.4ZM138.19 0L133.79 0Q129.94 0 127.96-1.95 125.99-3.9 125.99-7.65L125.99-7.65 125.99-20.5 122.29-20.5 122.29-26.25 124.14-26.25Q125.64-26.25 126.19-26.98 126.74-27.7 126.74-29.05L126.74-29.05 126.74-33.35 133.39-33.35 133.39-26.25 138.59-26.25 138.59-20.5 133.39-20.5 133.39-5.75 138.19-5.75 138.19 0ZM147.44-29.05L147.44-29.05Q145.19-29.05 144.16-30.08 143.14-31.1 143.14-32.7L143.14-32.7 143.14-33.8Q143.14-35.4 144.16-36.43 145.19-37.45 147.44-37.45L147.44-37.45Q149.69-37.45 150.71-36.43 151.74-35.4 151.74-33.8L151.74-33.8 151.74-32.7Q151.74-31.1 150.71-30.08 149.69-29.05 147.44-29.05ZM143.74 0L143.74-26.25 151.14-26.25 151.14 0 143.74 0ZM165.43 0L158.03 0 158.03-26.25 165.43-26.25 165.43-21.8 165.73-21.8Q166.43-23.85 168.18-25.35 169.93-26.85 173.03-26.85L173.03-26.85Q177.08-26.85 179.16-24.15 181.23-21.45 181.23-16.45L181.23-16.45 181.23 0 173.83 0 173.83-15.85Q173.83-18.4 173.03-19.63 172.23-20.85 170.18-20.85L170.18-20.85Q169.28-20.85 168.43-20.63 167.58-20.4 166.91-19.9 166.23-19.4 165.83-18.68 165.43-17.95 165.43-17L165.43-17 165.43 0ZM200.03 0L200.03-34.9 216.98-34.9Q221.33-34.9 223.75-32.45 226.18-30 226.18-25.95L226.18-25.95Q226.18-23.95 225.65-22.55 225.13-21.15 224.25-20.25 223.38-19.35 222.2-18.93 221.03-18.5 219.68-18.45L219.68-18.45 219.68-18.15Q220.93-18.15 222.3-17.7 223.68-17.25 224.83-16.28 225.98-15.3 226.75-13.75 227.53-12.2 227.53-9.95L227.53-9.95Q227.53-7.9 226.85-6.08 226.18-4.25 224.98-2.9 223.78-1.55 222.13-0.78 220.48 0 218.53 0L218.53 0 200.03 0ZM207.63-14.4L207.63-6.4 216.38-6.4Q217.88-6.4 218.75-7.23 219.63-8.05 219.63-9.55L219.63-9.55 219.63-11.25Q219.63-12.75 218.75-13.58 217.88-14.4 216.38-14.4L216.38-14.4 207.63-14.4ZM207.63-28.5L207.63-20.6 215.18-20.6Q216.68-20.6 217.53-21.45 218.38-22.3 218.38-23.8L218.38-23.8 218.38-25.3Q218.38-26.8 217.53-27.65 216.68-28.5 215.18-28.5L215.18-28.5 207.63-28.5ZM243.63 0.6L243.63 0.6Q240.73 0.6 238.45-0.35 236.18-1.3 234.6-3.1 233.03-4.9 232.18-7.45 231.33-10 231.33-13.15L231.33-13.15Q231.33-16.3 232.18-18.85 233.03-21.4 234.6-23.18 236.18-24.95 238.45-25.9 240.73-26.85 243.63-26.85L243.63-26.85Q246.53-26.85 248.8-25.9 251.08-24.95 252.65-23.18 254.23-21.4 255.08-18.85 255.93-16.3 255.93-13.15L255.93-13.15Q255.93-10 255.08-7.45 254.23-4.9 252.65-3.1 251.08-1.3 248.8-0.35 246.53 0.6 243.63 0.6ZM243.63-5.25L243.63-5.25Q245.83-5.25 247.03-6.6 248.23-7.95 248.23-10.45L248.23-10.45 248.23-15.8Q248.23-18.3 247.03-19.65 245.83-21 243.63-21L243.63-21Q241.43-21 240.23-19.65 239.03-18.3 239.03-15.8L239.03-15.8 239.03-10.45Q239.03-7.95 240.23-6.6 241.43-5.25 243.63-5.25ZM284.67 0L280.57 0Q278.57 0 277.25-1.25 275.92-2.5 275.57-4.6L275.57-4.6 275.27-4.6Q274.67-2.05 272.62-0.73 270.57 0.6 267.57 0.6L267.57 0.6Q263.62 0.6 261.52-1.5 259.42-3.6 259.42-7.05L259.42-7.05Q259.42-11.2 262.45-13.23 265.47-15.25 270.67-15.25L270.67-15.25 274.82-15.25 274.82-16.9Q274.82-18.8 273.82-19.93 272.82-21.05 270.47-21.05L270.47-21.05Q268.27-21.05 266.97-20.1 265.67-19.15 264.82-17.95L264.82-17.95 260.42-21.85Q262.02-24.2 264.45-25.53 266.87-26.85 271.02-26.85L271.02-26.85Q276.62-26.85 279.42-24.4 282.22-21.95 282.22-17.25L282.22-17.25 282.22-5.75 284.67-5.75 284.67 0ZM270.32-4.55L270.32-4.55Q272.17-4.55 273.5-5.35 274.82-6.15 274.82-7.95L274.82-7.95 274.82-11.05 271.22-11.05Q266.87-11.05 266.87-8.1L266.87-8.1 266.87-7.35Q266.87-5.9 267.77-5.23 268.67-4.55 270.32-4.55ZM297.02 0L289.62 0 289.62-26.25 297.02-26.25 297.02-20.55 297.27-20.55Q297.47-21.65 297.97-22.68 298.47-23.7 299.3-24.5 300.12-25.3 301.27-25.78 302.42-26.25 303.97-26.25L303.97-26.25 305.27-26.25 305.27-19.35 303.42-19.35Q300.17-19.35 298.6-18.5 297.02-17.65 297.02-15.35L297.02-15.35 297.02 0ZM325.72 0L325.72-4.4 325.47-4.4Q325.17-3.35 324.52-2.43 323.87-1.5 322.94-0.83 322.02-0.15 320.84 0.23 319.67 0.6 318.42 0.6L318.42 0.6Q313.42 0.6 310.87-2.93 308.32-6.45 308.32-13.15L308.32-13.15Q308.32-19.85 310.87-23.35 313.42-26.85 318.42-26.85L318.42-26.85Q320.97-26.85 322.94-25.45 324.92-24.05 325.47-21.85L325.47-21.85 325.72-21.85 325.72-37 333.12-37 333.12 0 325.72 0ZM320.87-5.4L320.87-5.4Q322.97-5.4 324.34-6.43 325.72-7.45 325.72-9.25L325.72-9.25 325.72-17Q325.72-18.8 324.34-19.83 322.97-20.85 320.87-20.85L320.87-20.85Q318.77-20.85 317.39-19.38 316.02-17.9 316.02-15.4L316.02-15.4 316.02-10.85Q316.02-8.35 317.39-6.88 318.77-5.4 320.87-5.4Z" opacity="1" transform="matrix(1,0,0,1,0,0)" fill="#ffffff" class="wordmark-text-0" data-fill-palette-color="primary" id="text-0"></path></svg></g></svg></g></svg></g></svg></g><g transform="matrix(1,0,0,1,406.3090502907258,0)"><svg viewBox="0 0 63.1596075068327 63.1596075068327" height="63.1596075068327" width="63.1596075068327"><g data-palette-color="#81ffd9"><rect width="17.263626051867604" height="63.1596075068327" fill="#81ffd9" stroke="transparent" data-fill-palette-color="accent" x="0" fill-opacity="1"></rect><rect width="17.263626051867604" height="63.1596075068327" fill="#81ffd9" stroke="transparent" data-fill-palette-color="accent" x="21.053202502277564" fill-opacity="0.75"></rect><rect width="17.263626051867604" height="63.1596075068327" fill="#81ffd9" stroke="transparent" data-fill-palette-color="accent" x="42.10640500455513" fill-opacity="0.5"></rect></g></svg></g></svg></g><defs></defs></svg><rect width="395.52" height="53.210981278913366" fill="none" stroke="none" visibility="hidden"></rect></g></svg></g></svg>